<?xml version="1.0" encoding="UTF-8"?>
<svg id="Camada_2" data-name="Camada 2" xmlns="http://www.w3.org/2000/svg" viewBox="0 0 263.92 114.88">
  <defs>
    <style>
      .cls-1 {
        fill: #fff;
      }
    </style>
  </defs>
  <g id="Camada_1-2" data-name="Camada 1">
    <g>
      <path class="cls-1" d="M263.9,54.65c-.05-.5-.18-.96-.43-1.32-.21-.3-.63-.59-1.16-.85-.57-.28-1.27-.55-2.03-.8-1.84-.61-3.95-1.13-5.05-1.62-13.45-6-16.08-26.53-33.35-27.8l-59.42.07c-4.74.79.07,7.12,1.45,9.23,10.23,15.72,26.49,29.96,9.41,48.65-14.3,15.65-35.99,10.55-54.57,11.62-4.04.23-5.67.62-8.26,3.73-2.74,3.29-7.64,9.71-9.7,13.33-1.99,3.5-.89,4.67,2.89,5.23,2.25.33,5.29.4,7.63.52,25.52,1.33,58.87-2.22,78.54-20.04,7.31-6.62,15.76-18.97,25.84-20.92,11.22-2.17,23.88,2.49,34.98-2.19,4.78-2.01,10.59-7.18,12.32-12.15.42-1.21,1.04-3.18.9-4.69Z"/>
      <path class="cls-1" d="M146.4,81.8c4.85,0,9.28-1.71,12.76-4.55,2.62-2.14,4.7-4.94,5.97-8.13.25-.63.47-1.28.66-1.94.62-1.67.84-3.37.77-5.07,0-.17.02-.34.02-.51v-.19c0-.52-.03-1.02-.07-1.54-.02-.26-.05-.52-.08-.78-.04-.3-.08-.6-.14-.9-.03-.18-.06-.36-.1-.55-.2-.99-.47-1.96-.81-2.89-.06-.21-.14-.41-.23-.61-.19-.5-.41-.99-.65-1.46-.12-.24-.24-.48-.37-.71-.51-.94-1.08-1.83-1.74-2.67l-7.84-10.12-.93-1.21c-5.66-8.08-11.9-16.91-18.2-24.26-4.05-4.73-8.97-8.16-14.56-10.24-5.24-2.22-11.18-3.48-17.49-3.48H0l43.25,56.3,7.8,10.16c.23.33.48.65.73.97.34.45.71.89,1.09,1.32.14.17.29.33.44.5.19.22.4.43.61.65.1.11.21.22.31.32.1.11.21.21.32.32.22.22.43.42.65.62.22.21.44.42.67.61.29.26.59.52.89.77.23.19.45.37.69.55.24.2.48.38.73.57.39.29.78.57,1.18.85.34.24.7.47,1.05.7.8.52,1.64,1,2.49,1.46.43.23.87.46,1.31.68.42.21.86.42,1.3.61.49.22.98.42,1.47.62.46.19.93.37,1.41.54.05.03.11.05.17.06.05.02.1.04.15.05.03,0,.06.02.09.03t.02,0c.34.13.71.24,1.06.36.22.07.44.14.67.21.61.19,1.22.36,1.84.52.4.11.8.21,1.21.3.21.05.42.1.64.14.53.12,1.07.23,1.62.32.46.08.93.16,1.4.23s.95.13,1.42.18c.42.05.85.08,1.27.12.39.04.79.06,1.18.08.89.05,1.79.08,2.69.08h62.54Z"/>
    </g>
  </g>
</svg>