<?xml version="1.0" encoding="iso-8859-1"?>
<!-- Generator: Adobe Illustrator 16.0.0, SVG Export Plug-In . SVG Version: 6.00 Build 0)  -->
<!DOCTYPE svg PUBLIC "-//W3C//DTD SVG 1.1//EN" "http://www.w3.org/Graphics/SVG/1.1/DTD/svg11.dtd">
<svg version="1.1" xmlns="http://www.w3.org/2000/svg" xmlns:xlink="http://www.w3.org/1999/xlink" x="0px" y="0px" width="30px"
	 height="28px" viewBox="0 0 30 28" style="enable-background:new 0 0 30 28;" xml:space="preserve">
<g id="menu" fill="white">
	<path d="M0,25c0,1.657,1.343,3,3,3h24c1.657,0,3-1.343,3-3s-1.343-3-3-3H3C1.343,22,0,23.343,0,25z"/>
	<path d="M0,14c0,1.657,1.343,3,3,3h24c1.657,0,3-1.343,3-3c0-1.657-1.343-3-3-3H3C1.343,11,0,12.343,0,14z"/>
	<path d="M3,0C1.343,0,0,1.343,0,3s1.343,3,3,3h24c1.657,0,3-1.343,3-3s-1.343-3-3-3H3z"/>
</g>
<g id="Layer_1">
</g>
</svg>
