<svg width="11" height="12" viewBox="0 0 11 12" fill="none" xmlns="http://www.w3.org/2000/svg">
<path d="M0.75 4.77295C0.335786 4.77295 -1.11376e-08 5.10874 0 5.52295C1.11376e-08 5.93716 0.335786 6.27295 0.75 6.27295L0.75 5.52295L0.75 4.77295ZM10.2803 6.05328C10.5732 5.76039 10.5732 5.28551 10.2803 4.99262L5.50736 0.219648C5.21447 -0.0732452 4.73959 -0.0732452 4.4467 0.219648C4.15381 0.512542 4.15381 0.987415 4.4467 1.28031L8.68934 5.52295L4.4467 9.76559C4.15381 10.0585 4.15381 10.5334 4.4467 10.8262C4.73959 11.1191 5.21447 11.1191 5.50736 10.8262L10.2803 6.05328ZM0.75 5.52295L0.75 6.27295L9.75 6.27295L9.75 5.52295L9.75 4.77295L0.75 4.77295L0.75 5.52295Z" fill="#1B407C"/>
</svg>
