<?xml version="1.0" encoding="UTF-8"?>
<svg id="Camada_2" data-name="Camada 2" xmlns="http://www.w3.org/2000/svg" viewBox="0 0 93.36 21.36">
  <defs>
    <style>
      .cls-1 {
        fill: #1b407c;
      }
    </style>
  </defs>
  <g id="Letra">
    <g>
      <path class="cls-1" d="M0,21.18v-1.53L14.58,1.26l.24.84H.21V.18h16.65v1.53L2.31,20.1l-.27-.84h15.18v1.92H0Z"/>
      <path class="cls-1" d="M18.24,21.18L27.84.18h2.19l9.6,21h-2.34L28.47,1.47h.9l-8.82,19.71h-2.31Z"/>
      <path class="cls-1" d="M46.14,21.18V2.1h-7.38V.18h16.98v1.92h-7.38v19.08h-2.22Z"/>
      <path class="cls-1" d="M54.87,21.18L64.47.18h2.19l9.6,21h-2.34L65.1,1.47h.9l-8.82,19.71h-2.31Z"/>
      <path class="cls-1" d="M85.53,21.36c-1.56,0-3.06-.25-4.49-.76s-2.53-1.17-3.31-1.96l.87-1.71c.74.72,1.73,1.32,2.98,1.81s2.57.74,3.95.74,2.39-.17,3.22-.5,1.44-.78,1.83-1.33c.39-.56.58-1.18.58-1.86,0-.82-.24-1.48-.71-1.98s-1.08-.9-1.84-1.19c-.76-.29-1.6-.54-2.52-.77-.92-.22-1.84-.45-2.76-.71-.92-.25-1.76-.58-2.53-1-.77-.42-1.39-.98-1.86-1.67s-.71-1.59-.71-2.71c0-1.04.27-2,.83-2.87.55-.87,1.39-1.57,2.54-2.1,1.14-.53,2.6-.8,4.38-.8,1.18,0,2.35.17,3.51.5s2.16.79,3,1.37l-.75,1.77c-.9-.6-1.86-1.04-2.87-1.32-1.01-.28-1.98-.42-2.92-.42-1.26,0-2.3.17-3.12.51-.82.34-1.42.79-1.81,1.36-.39.57-.58,1.21-.58,1.94,0,.82.23,1.48.71,1.98.47.5,1.09.89,1.86,1.17.77.28,1.62.53,2.54.75.92.22,1.83.46,2.75.72.91.26,1.75.6,2.52,1,.77.41,1.39.96,1.86,1.63.47.68.71,1.57.71,2.67,0,1.02-.28,1.97-.84,2.84-.56.87-1.42,1.57-2.57,2.1-1.15.53-2.62.79-4.42.79Z"/>
    </g>
  </g>
</svg>