<?xml version="1.0" encoding="UTF-8"?>
<svg id="Camada_2" data-name="Camada 2" xmlns="http://www.w3.org/2000/svg" viewBox="0 0 94.36 22.36">
  <defs>
    <style>
      .cls-1 {
        fill: none;
        stroke: #1b407c;
        stroke-miterlimit: 10;
      }
    </style>
  </defs>
  <g id="Letra">
    <g>
      <polygon class="cls-1" points="17.36 2.21 17.36 .68 .71 .68 .71 2.6 14.41 2.6 .5 20.15 .5 21.68 17.72 21.68 17.72 19.76 3.47 19.76 17.36 2.21"/>
      <polygon class="cls-1" points="28.34 .68 18.74 21.68 21.05 21.68 29.42 2.98 37.79 21.68 40.13 21.68 30.53 .68 28.34 .68"/>
      <polygon class="cls-1" points="56.24 .68 39.26 .68 39.26 2.6 46.64 2.6 46.64 21.68 48.86 21.68 48.86 2.6 56.24 2.6 56.24 .68"/>
      <polygon class="cls-1" points="64.97 .68 55.37 21.68 57.68 21.68 66.05 2.98 74.42 21.68 76.76 21.68 67.16 .68 64.97 .68"/>
      <path class="cls-1" d="M93.15,13.46c-.47-.68-1.09-1.22-1.86-1.63-.77-.41-1.61-.74-2.52-1-.91-.26-1.83-.5-2.75-.72-.92-.22-1.77-.47-2.54-.75-.77-.28-1.39-.67-1.86-1.17-.47-.5-.71-1.16-.71-1.98,0-.72.19-1.37.58-1.94.39-.57.99-1.02,1.81-1.36.82-.34,1.86-.51,3.12-.51.94,0,1.92.14,2.92.42,1.01.28,1.96.72,2.87,1.32l.75-1.77c-.84-.58-1.84-1.04-3-1.37s-2.33-.5-3.51-.5c-1.78,0-3.24.27-4.38.8-1.14.53-1.99,1.23-2.54,2.1-.55.87-.83,1.83-.83,2.87,0,1.12.24,2.02.71,2.71s1.09,1.25,1.86,1.67c.77.42,1.61.76,2.53,1,.92.25,1.84.49,2.76.71.92.22,1.76.48,2.52.77.76.29,1.38.69,1.84,1.19s.71,1.16.71,1.98c0,.68-.19,1.3-.58,1.86-.39.56-1,1-1.83,1.33s-1.9.5-3.22.5-2.7-.25-3.95-.74-2.25-1.09-2.98-1.81l-.87,1.71c.78.8,1.88,1.46,3.31,1.96s2.93.76,4.49.76c1.8,0,3.27-.26,4.42-.79,1.15-.53,2-1.23,2.57-2.1.56-.87.84-1.82.84-2.84,0-1.1-.24-1.99-.71-2.67Z"/>
    </g>
  </g>
</svg>